<mxfile host="app.diagrams.net" modified="2023-05-15T14:58:41.604Z" agent="Mozilla/5.0 (Windows NT 10.0; Win64; x64) AppleWebKit/537.36 (KHTML, like Gecko) Chrome/113.0.0.0 Safari/537.36" etag="TEkKYPHt6KcUcPh5qiOR" version="21.3.2" type="device">
  <diagram name="페이지-1" id="697dYtNULBQyQSnIDLgk">
    <mxGraphModel dx="1302" dy="669" grid="1" gridSize="10" guides="1" tooltips="1" connect="1" arrows="1" fold="1" page="1" pageScale="1" pageWidth="1169" pageHeight="827" math="0" shadow="0">
      <root>
        <mxCell id="0" />
        <mxCell id="1" parent="0" />
        <mxCell id="dma2-FAJg4TJJQWOGDUs-3" value="" style="rounded=1;whiteSpace=wrap;html=1;arcSize=4;fillColor=#F8EAE9;strokeColor=#b85450;" parent="1" vertex="1">
          <mxGeometry x="558.09" y="161.12" width="351" height="230" as="geometry" />
        </mxCell>
        <mxCell id="dma2-FAJg4TJJQWOGDUs-38" style="edgeStyle=orthogonalEdgeStyle;rounded=0;orthogonalLoop=1;jettySize=auto;html=1;exitX=1;exitY=0.5;exitDx=0;exitDy=0;strokeWidth=3;startArrow=classic;startFill=1;entryX=0;entryY=0.5;entryDx=0;entryDy=0;" parent="1" source="dma2-FAJg4TJJQWOGDUs-37" target="dma2-FAJg4TJJQWOGDUs-52" edge="1">
          <mxGeometry relative="1" as="geometry">
            <mxPoint x="661.09" y="276.12" as="targetPoint" />
          </mxGeometry>
        </mxCell>
        <mxCell id="dma2-FAJg4TJJQWOGDUs-37" value="" style="rounded=1;whiteSpace=wrap;html=1;arcSize=4;fillColor=#CCE5FF;strokeColor=#6c8ebf;" parent="1" vertex="1">
          <mxGeometry x="160" y="161" width="190" height="230" as="geometry" />
        </mxCell>
        <mxCell id="dma2-FAJg4TJJQWOGDUs-1" value="&lt;font data-font-src=&quot;https://fonts.googleapis.com/css?family=Outfit&quot; style=&quot;font-size: 10px;&quot;&gt;Raspberry Pi&lt;/font&gt;" style="shape=image;html=1;verticalAlign=top;verticalLabelPosition=bottom;labelBackgroundColor=none;imageAspect=0;aspect=fixed;image=https://cdn1.iconfinder.com/data/icons/fruit-136/64/Fruit_iconfree_Filled_Outline_raspberry-healthy-organic-food-fruit_icon-128.png;fontFamily=Outfit;fontSource=https%3A%2F%2Ffonts.googleapis.com%2Fcss%3Ffamily%3DOutfit;fontStyle=1;fontSize=10;" parent="1" vertex="1">
          <mxGeometry x="579.09" y="333.12" width="33.45" height="33.45" as="geometry" />
        </mxCell>
        <mxCell id="dma2-FAJg4TJJQWOGDUs-44" style="edgeStyle=orthogonalEdgeStyle;rounded=0;orthogonalLoop=1;jettySize=auto;html=1;" parent="1" source="dma2-FAJg4TJJQWOGDUs-2" target="dma2-FAJg4TJJQWOGDUs-42" edge="1">
          <mxGeometry relative="1" as="geometry">
            <Array as="points">
              <mxPoint x="270.09" y="343.12" />
            </Array>
          </mxGeometry>
        </mxCell>
        <mxCell id="dma2-FAJg4TJJQWOGDUs-2" value="&lt;font style=&quot;font-size: 12px;&quot;&gt;PC&lt;/font&gt;" style="image;points=[];aspect=fixed;html=1;align=center;shadow=0;dashed=0;image=img/lib/allied_telesis/computer_and_terminals/Personal_Computer.svg;fontSize=12;fontFamily=Outfit;fontSource=https%3A%2F%2Ffonts.googleapis.com%2Fcss%3Ffamily%3DOutfit;fontStyle=1;imageBackground=none;labelBorderColor=none;labelBackgroundColor=none;" parent="1" vertex="1">
          <mxGeometry x="171.09" y="322.46" width="32.55" height="44.11" as="geometry" />
        </mxCell>
        <mxCell id="dma2-FAJg4TJJQWOGDUs-4" value="&lt;font size=&quot;1&quot; data-font-src=&quot;https://fonts.googleapis.com/css?family=Outfit&quot; face=&quot;Outfit&quot; style=&quot;&quot;&gt;&lt;b style=&quot;font-size: 24px;&quot;&gt;Mue&amp;nbsp;Hub&lt;/b&gt;&lt;/font&gt;" style="text;html=1;align=center;verticalAlign=middle;resizable=0;points=[];autosize=1;strokeColor=none;fillColor=none;" parent="1" vertex="1">
          <mxGeometry x="674.09" y="403.12" width="120" height="40" as="geometry" />
        </mxCell>
        <mxCell id="dma2-FAJg4TJJQWOGDUs-10" value="&lt;font style=&quot;font-size: 9px;&quot;&gt;&lt;i&gt;UDP&amp;nbsp;&lt;/i&gt;&lt;br style=&quot;font-size: 9px;&quot;&gt;Send Color Data&lt;/font&gt;" style="text;html=1;align=center;verticalAlign=middle;resizable=0;points=[];autosize=1;strokeColor=none;fillColor=none;fontFamily=Outfit;fontSource=https%3A%2F%2Ffonts.googleapis.com%2Fcss%3Ffamily%3DOutfit;fontStyle=1" parent="1" vertex="1">
          <mxGeometry x="404.09" y="206" width="100" height="40" as="geometry" />
        </mxCell>
        <mxCell id="dma2-FAJg4TJJQWOGDUs-11" value="&lt;font style=&quot;font-size: 9px;&quot;&gt;&lt;i&gt;GET/POST&lt;/i&gt;&lt;br style=&quot;font-size: 9px;&quot;&gt;Send Settings Value from PC&lt;br style=&quot;font-size: 9px;&quot;&gt;Receive ACK from Mue Sync Hub&amp;nbsp;&lt;/font&gt;" style="text;html=1;align=center;verticalAlign=middle;resizable=0;points=[];autosize=1;strokeColor=none;fillColor=none;fontFamily=Outfit;fontSource=https%3A%2F%2Ffonts.googleapis.com%2Fcss%3Ffamily%3DOutfit;fontStyle=1" parent="1" vertex="1">
          <mxGeometry x="369.09" y="278.35" width="170" height="60" as="geometry" />
        </mxCell>
        <mxCell id="dma2-FAJg4TJJQWOGDUs-24" value="&lt;font style=&quot;font-size: 18px;&quot;&gt;&lt;b&gt;W2812&lt;br&gt;LED Strip&lt;/b&gt;&lt;/font&gt;" style="shape=image;html=1;verticalAlign=top;verticalLabelPosition=bottom;labelBackgroundColor=#ffffff;imageAspect=0;aspect=fixed;image=https://cdn3.iconfinder.com/data/icons/energy-and-power-glyph-24-px/24/Lamp_electric_light_led_bulb_light_bulb_luminaire-128.png;fontFamily=Outfit;fontSource=https%3A%2F%2Ffonts.googleapis.com%2Fcss%3Ffamily%3DOutfit;" parent="1" vertex="1">
          <mxGeometry x="901.09" y="585.77" width="54" height="54" as="geometry" />
        </mxCell>
        <mxCell id="Xg-3cdBNH_Eo5FTvBpCZ-9" style="edgeStyle=orthogonalEdgeStyle;rounded=0;orthogonalLoop=1;jettySize=auto;html=1;entryX=0.114;entryY=1;entryDx=0;entryDy=0;entryPerimeter=0;exitX=0;exitY=0.5;exitDx=0;exitDy=0;startArrow=classic;startFill=1;" parent="1" source="dma2-FAJg4TJJQWOGDUs-30" target="dma2-FAJg4TJJQWOGDUs-54" edge="1">
          <mxGeometry relative="1" as="geometry">
            <Array as="points">
              <mxPoint x="751.09" y="297" />
              <mxPoint x="720.09" y="297" />
            </Array>
          </mxGeometry>
        </mxCell>
        <mxCell id="dma2-FAJg4TJJQWOGDUs-30" value="" style="shape=image;verticalLabelPosition=bottom;labelBackgroundColor=default;verticalAlign=top;aspect=fixed;imageAspect=0;image=data:image/svg+xml,PHN2ZyB4bWxuczp4bGluaz0iaHR0cDovL3d3dy53My5vcmcvMTk5OS94bGluayIgeG1sbnM9Imh0dHA6Ly93d3cudzMub3JnLzIwMDAvc3ZnIiB4bWw6c3BhY2U9InByZXNlcnZlIiBpZD0ic3ZnMjk4NSIgaGVpZ2h0PSIxODAuNjAzNDkiIHdpZHRoPSIzODEuODUxNSIgdmVyc2lvbj0iMS4xIiB2aWV3Qm94PSIwIDAgMzgxLjg1MTUgMTgwLjYwMzQ5Ij48dGl0bGUgaWQ9InRpdGxlMjk5OCI+U1FMaXRlPC90aXRsZT48bWV0YWRhdGEgaWQ9Im1ldGFkYXRhMjk5MSI+aW1hZ2Uvc3ZnK3htbFNRTGl0ZTwvbWV0YWRhdGE+PGRlZnMgaWQ9ImRlZnMyOTg5Ij48bGluZWFyR3JhZGllbnQgc3ByZWFkTWV0aG9kPSJwYWQiIGdyYWRpZW50VHJhbnNmb3JtPSJtYXRyaXgoLTQuMDJlLTYsLTkxLjg5MDcsLTkxLjg5MDcsNC4wMmUtNiw4NS44ODA5LDE2MS40MzQpIiBncmFkaWVudFVuaXRzPSJ1c2VyU3BhY2VPblVzZSIgaWQ9ImxpbmVhckdyYWRpZW50MzAyNyIgeTI9IjAiIHgyPSIxIiB5MT0iMCIgeDE9IjAiPjxzdG9wIG9mZnNldD0iMCIgc3R5bGU9InN0b3AtY29sb3I6Izk3ZDlmNjtzdG9wLW9wYWNpdHk6MSIgaWQ9InN0b3AzMDI5Ii8+PHN0b3Agb2Zmc2V0PSIwLjkyMDI0NDk5IiBzdHlsZT0ic3RvcC1jb2xvcjojMGY4MGNjO3N0b3Atb3BhY2l0eToxIiBpZD0ic3RvcDMwMzEiLz48c3RvcCBvZmZzZXQ9IjEiIHN0eWxlPSJzdG9wLWNvbG9yOiMwZjgwY2M7c3RvcC1vcGFjaXR5OjEiIGlkPSJzdG9wMzAzMyIvPjwvbGluZWFyR3JhZGllbnQ+PGxpbmVhckdyYWRpZW50IHNwcmVhZE1ldGhvZD0icGFkIiBncmFkaWVudFRyYW5zZm9ybT0ibWF0cml4KC00LjAyZS03LC05LjE4OTA3LC05LjE4OTA3LDQuMDJlLTcsOC41ODgwOSwxNi4xNDM0KSIgZ3JhZGllbnRVbml0cz0idXNlclNwYWNlT25Vc2UiIHhsaW5rOmhyZWY9IiNsaW5lYXJHcmFkaWVudDMwMjciIGlkPSJsaW5lYXJHcmFkaWVudDU0MjEiIHkyPSItOS4xMDgyOTgzIiB4Mj0iLTYuNzQxMDA3MyIgeTE9Ii05LjEwODI5ODMiIHgxPSItMTUuNjE0Njk0Ii8+PGxpbmVhckdyYWRpZW50IHNwcmVhZE1ldGhvZD0icGFkIiBncmFkaWVudFRyYW5zZm9ybT0ibWF0cml4KC01LjAyNWUtNywxMS40ODYzMzcsLTExLjQ4NjMzNywtNS4wMjVlLTcsLTMwLjgzOTYzOCwyMDIuMTg2OTgpIiBncmFkaWVudFVuaXRzPSJ1c2VyU3BhY2VPblVzZSIgeGxpbms6aHJlZj0iI2xpbmVhckdyYWRpZW50MzAyNyIgaWQ9ImxpbmVhckdyYWRpZW50Mjk5NSIgeTI9Ii05LjEwODI5ODMiIHgyPSItNi43NDEwMDczIiB5MT0iLTkuMTA4Mjk4MyIgeDE9Ii0xNS42MTQ2OTQiLz48L2RlZnM+PHBhdGggc3R5bGU9ImZpbGw6IzAwM2I1NztmaWxsLW9wYWNpdHk6MTtmaWxsLXJ1bGU6bm9uemVybztzdHJva2U6bm9uZSIgaWQ9IlNRTGl0ZSIgZD0ibSAxNDcuNTMxMjUsODkuMjE4NzU1IGMgLTQuODIyNSwwIC04Ljc0Mzc1LDEuNDI3NSAtMTEuNzUsNC4yODEyNSAtMy4wMDYyNSwyLjg1NjI1IC00LjUzMTI1LDYuNjAwMTM1IC00LjUzMTI1LDExLjE4NzUwNSAwLDIuMzc3MzggMC4zNzg3NSw0LjU0NSAxLjEyNSw2LjUzMTI1IDAuNzQ2MjUsMS45OTAyNSAxLjkwNzUsMy44MzQgMy40Njg3NSw1LjUgMS41NjEyNSwxLjY2NzUgNC42ODYyNSwzLjkzMjYzIDkuMzQzNzUsNi44MTI1IDUuNzE1LDMuNDg4ODcgOS40NTUsNi4zMjAzNyAxMS4yNSw4LjUzMTI0IDEuNzk2MjUsMi4yMDkgMi42ODc1LDQuNTI0IDIuNjg3NSw2LjkzNzUgMCwzLjIzMTUgLTEuMDYzNzUsNS44MTEgLTMuMjUsNy43NSAtMi4xOSwxLjkzOTg4IC01LjExODc1LDIuOTA2MjUgLTguNzUsMi45MDYyNSAtMy44MywwIC03LjE2NjI1LC0xLjM1MDEyIC0xMC4wMzEyNSwtNC4wMzEyNSAtMi44NjUsLTIuNjg1IC00LjMxMTI1LC02LjIzNjM3IC00LjM0Mzc1LC0xMC42ODc1IGwgLTEuNzgxMjUsMCAwLDE2LjE1NjI1IDEuNzgxMjUsMCBjIDAuNTQzNzUsLTEuNTI5ODggMS4yOTYyNSwtMi4zMTI1IDIuMjgxMjUsLTIuMzEyNSAwLjQ3Mzc1LDAgMS41ODM3NSwwLjMyNjc1IDMuMzEyNSwwLjkzNzUgNC4yMDYyNSwxLjQ5NjYyIDcuNjYsMi4yMTg3NSAxMC4zNzUsMi4yMTg3NSA0LjY3ODc1LDAgOC42NzI1LC0xLjYzODYyIDEyLC00Ljk2ODc1IDMuMzIyNSwtMy4zMjg2MiA1LC03LjM0Mzc1IDUsLTEyLjAzMTI1IDAsLTMuNjM0NzUgLTEuMTA3NSwtNi44Njg2MyAtMy4yODEyNSwtOS42ODc0OSAtMi4xNzM3NSwtMi44MjIyNSAtNi40MDEyNSwtNi4xMDUwMSAtMTIuNzE4NzUsLTkuODc1IC01LjQzNjI1LC0zLjI2NjE0IC04Ljk2NSwtNS45MjYyNSAtMTAuNTkzNzUsLTggLTEuNjMxMjUsLTIuMDcwNzYgLTIuNDY4NzUsLTQuMzYxMzcgLTIuNDY4NzUsLTYuODc1IDAsLTIuNzE4NzU1IDAuOTk4NzUsLTQuOTAyNTA1IDIuOTY4NzUsLTYuNTMxMjU1IDEuOTcsLTEuNjMgNC41NTEyNSwtMi40Mzc1IDcuNzgxMjUsLTIuNDM3NSAzLjYzNSwwIDYuNjY1LDEuMDc4NzUgOS4wNjI1LDMuMjUgMi4zOTUsMi4xNzUgMy43OCw1LjE4OSA0LjE4NzUsOS4wNjI1MDUgbCAxLjc4MTI1LDAgMCwtMTQuMDAwMDA1IC0xLjY1NjI1LDAgYyAtMC4yMDI1LDAuNzEzNzUgLTAuMzksMS4xNyAtMC41NjI1LDEuMzc1IC0wLjE2NzUsMC4yMDM3NSAtMC40OSwwLjMxMjUgLTAuOTY4NzUsMC4zMTI1IC0wLjU3NjI1LDAgLTEuNjAzNzUsLTAuMjQyNSAtMy4wNjI1LC0wLjcxODc1IC0zLjEyNSwtMS4wNTI1IC02LjAwNjI1LC0xLjU5Mzc1IC04LjY1NjI1LC0xLjU5Mzc1IHogbSA1OC4yMTg3NSwwIGMgLTUuODc2MjUsMCAtMTEuMjExMjUsMS4zODUgLTE2LjAzMTI1LDQuMTU2MjUgLTQuODI3NSwyLjc2NjI1IC04LjY0ODc1LDYuNjA3NSAtMTEuNDY4NzUsMTEuNTAwMDA1IC0yLjgxODc1LDQuODkyMTIgLTQuMjE4NzUsMTAuMDg3ODYgLTQuMjE4NzUsMTUuNjI1IDAsNy40Mzg5OSAyLjQzNSwxNC4wNjYzNiA3LjM0Mzc1LDE5Ljg3NDk5IDQuOTExMjUsNS44MDUxMyAxMC43OTYyNSw5LjQyMjM4IDE3LjYyNSwxMC44MTI1IDEuNTYxMjUsMC44MTM1IDMuNzk1LDIuOTEzNSA2LjcxODc1LDYuMzEyNSAzLjI5NSwzLjgzNTg3IDYuMDgyNSw2LjYwMjUgOC4zNzUsOC4yNSAyLjI5LDEuNjQ4MzcgNC43NjI1LDIuODU2NSA3LjM3NSwzLjY1NjI1IDIuNjE1LDAuNzk2MzggNS40NDI1LDEuMTg3NSA4LjUsMS4xODc1IDMuNzAyNSwwIDcuMDE3NSwtMC42NDM1IDkuOTM3NSwtMS45Njg3NSBMIDIzOS4yNSwxNjcgYyAtMS42OTUsMC42MTEzOCAtMy41MDI1LDAuOTA2MjUgLTUuNDA2MjUsMC45MDYyNSAtMi41ODM3NSwwIC01LjE5NSwtMC44NTIgLTcuODEyNSwtMi41NjI1IC0yLjYxMzc1LC0xLjcxNDc1IC01Ljg4MjUsLTQuOTg2MzcgLTkuNzgxMjUsLTkuODEyNSAtMS44MzI1LC0yLjMxMjUgLTMuMDk3NSwtMy43NzE1IC0zLjgxMjUsLTQuMzQzNzUgNy40NzEyNSwtMS40NTkgMTMuNjE1LC01LjA4IDE4LjQwNjI1LC0xMC44NzUgNC43OSwtNS43OTI1IDcuMTg3NSwtMTIuNDAzMzYgNy4xODc1LC0xOS44MTI0OSAwLC04Ljc5NzM5IC0zLjEzLC0xNi4xOTA4OCAtOS4zNDM3NSwtMjIuMjE4NzU1IC02LjIxODc1LC02LjAyODUgLTEzLjg2NjI1LC05LjA2MjUgLTIyLjkzNzUsLTkuMDYyNSB6IG0gMzYuMzQzNzUsMCAwLjA5MzcsMS45MDYyNSBjIDMuOTEyNSwwIDYuMTAzNzUsMS4xNTI1IDYuNTkzNzUsMy40Njg3NSAwLjE4MjUsMC44Mjg3NSAwLjI2NjI1LDIuMzU5IDAuMjgxMjUsNC41NjI1IGwgLTAuMDMxMiw0Mi4xNTYyNDUgYyAtMC4wMzI1LDMuMTQ4NSAtMC40ODEyNSw1LjE1ODc1IC0xLjM0Mzc1LDYuMDMxMjUgLTAuODYzNzUsMC44NjYyNSAtMi4zMjM3NSwxLjQwODc1IC00LjQzNzUsMS42MjUgbCAtMC4wOTM3LDEuOTA2MjUgMzksMCAxLC05LjU2MjUgLTEuNzgxMjUsMCBjIC0wLjUwODc1LDIuNjA1IC0xLjY3NSw0LjQ3MTEzIC0zLjUzMTI1LDUuNTMxMjUgLTEuODYxMjUsMS4wNjc4NyAtNS4xNTI1LDEuNTkzNzUgLTkuOTA2MjUsMS41OTM3NSBsIC0zLjY4NzUsMCBjIC00LjI3NzUsMCAtNi43NTI1LC0xLjU0NjM4IC03LjQwNjI1LC00LjY1NjI1IC0wLjEzNSwtMC42MTUyNSAtMC4xODEyNSwtMS4yNzQ4OCAtMC4xODc1LC0yIGwgMC4xNTYyNSwtNDIuNjI0OTk1IGMgLTEwZS00LC0zLjE0MzUgMC4zOTYyNSwtNS4yNSAxLjIxODc1LC02LjI4MTI1IDAuODMxMjUsLTEuMDI3NSAyLjMzLC0xLjYwMjUgNC41LC0xLjc1IGwgLTAuMDkzNywtMS45MDYyNSAtMjAuMzQzNzUsMCB6IG0gLTM1LjcxODc1LDIuMzEyNSBjIDYuNjI3NSwwIDEyLjAzODc1LDIuNjEwMjUgMTYuMjE4NzUsNy44NzUgNC4xNzg3NSw1LjI2NjYzNSA2LjI1LDEyLjQ4NDg3NSA2LjI1LDIxLjYyNTAwNSAwLDguNjYxMTEgLTIuMTAxMjUsMTUuNTk2MTIgLTYuMzEyNSwyMC44MTI0OSAtNC4yMTEyNSw1LjIxNDc1IC05LjgxNjI1LDcuODEyNSAtMTYuNzgxMjUsNy44MTI1IC02LjY5MTI1LDAgLTEyLjExNzUsLTIuNjc4NzUgLTE2LjI4MTI1LC04LjA2MjUgLTQuMTYsLTUuMzgzNzUgLTYuMjE4NzUsLTEyLjM3MzUgLTYuMjE4NzUsLTIwLjk2ODc0IDAsLTguODMyNSAyLjA4Mzc1LC0xNS45MDI4OCA2LjI4MTI1LC0yMS4xODc1MDUgNC4xOTUsLTUuMjc5IDkuODEyNSwtNy45MDYyNSAxNi44NDM3NSwtNy45MDYyNSB6IG0gODkuNjg3NSw5LjA2MjUwNSBjIC0wLjk1MTI1LDAgLTEuNjc2MjUsMC4zMjEyNSAtMi4yMTg3NSwwLjk2ODc1IC0wLjU1NSwwLjY0NDk5IC0wLjcyNSwxLjQyNjI0IC0wLjUzMTI1LDIuMzc1IDAuMTg3NSwwLjkyMDM3IDAuNzA2MjUsMS43MjcgMS41MzEyNSwyLjQwNjI1IDAuODIsMC42Nzg2MSAxLjcwNSwxLjAzMTI1IDIuNjU2MjUsMS4wMzEyNSAwLjkyLDAgMS42MjEyNSwtMC4zNTI2MiAyLjEyNSwtMS4wMzEyNSAwLjUwMzc1LC0wLjY3OTI1IDAuNjU3NSwtMS40ODU4OCAwLjQ2ODc1LC0yLjQwNjI1IC0wLjE5Mzc1LC0wLjk0ODc2IC0wLjY5NSwtMS43MzAwMSAtMS40Njg3NSwtMi4zNzUgLTAuNzgyNSwtMC42NDc1IC0xLjY0MjUsLTAuOTY4NzUgLTIuNTYyNSwtMC45Njg3NSB6IG0gMjUuNzE4NzUsNi40Njg3NSBjIC0xLjYxNjI1LDYuMjE3NzQgLTUuMTIsOS41ODI0OSAtMTAuNSwxMC4xMjUgbCAwLjA2MjUsMS43ODEyNSA2LjI4MTI1LDAgLTAuMTI1LDIxLjA2MjQ5IGMgMC4wMSwzLjYwMSAwLjEyLDUuOTk4NSAwLjM3NSw3LjIxODc1IDAuNjE4NzUsMi45MjEzOCAyLjUyNjI1LDQuNDA2MjUgNS43MTg3NSw0LjQwNjI1IDQuNjE4NzUsMCA5LjQ2Mzc1LC0yLjgxMzUgMTQuNTMxMjUsLTguNDM3NSBsIC0xLjUzMTI1LC0xLjMxMjUgYyAtMy42NTg3NSwzLjcwMzYzIC02Ljg5Mzc1LDUuNTYyNSAtOS43MTg3NSw1LjU2MjUgLTEuNzM2MjUsMCAtMi44MTI1LC0wLjk5ODUgLTMuMjE4NzUsLTIuOTY4NzUgQyAzMjMuNTQ1LDE0NC4wMjE1IDMyMy41LDE0My40NjIzOCAzMjMuNSwxNDIuODEyNSBsIDAuMDYyNSwtMjMuODQzNzQgOS41OTM3NSwwIC0wLjA5MzcsLTIuODQzNzUgLTkuNDY4NzUsMCAwLC05LjA2MjUgLTEuODEyNSwwIHogbSAzNy4wOTM3NSw3LjkzNzUgYyAtNS4zNjYyNSwwIC05LjczMTI1LDIuNjA1IC0xMy4xMjUsNy43ODEyNSAtMy4zNzYyNSw1LjE4NSAtNC40MjEyNSwxMC45Mjk2MSAtMy4wOTM3NSwxNy4yNDk5OSAwLjc4MTI1LDMuNzAyMTIgMi4zMzc1LDYuNTcxMzggNC43MTg3NSw4LjU5Mzc1IDIuMzc3NSwyLjAyMTUgNS4zOTM3NSwzLjAzMTI1IDksMy4wMzEyNSAzLjM1NzUsMCA4LjAzMjUsLTAuODUwMTIgMTAsLTIuNTYyNSAxLjk3MjUsLTEuNzExMzggMy43OSwtNC40ODM4OCA1LjQ2ODc1LC04LjI4MTI1IEwgMzcwLjUsMTM5LjQwNjI1IGMgLTIuNjc3NSw0LjkyNjI1IC04LjA4MTI1LDcuNDA2MjUgLTEyLjE1NjI1LDcuNDA2MjUgLTUuNjAyNSwwIC05LjAzMzc1LC0zLjA3Mzc1IC0xMC4zMTI1LC05LjE4NzUgLTAuMTY2MjUsLTAuNzgwMzggLTAuMjksLTEuNjE4NzUgLTAuMzc1LC0yLjUgNi42NjUsLTEuMDU1MjUgMTEuNzE2MjUsLTIuOTIzODggMTUuMTI1LC01LjYyNSAzLjQwNjI1LC0yLjcwMjYxIDYuODI2MjUsLTUuNTY3MzcgNi4xODc1LC04LjU5Mzc0IC0wLjM4LC0xLjc5ODM4IC0xLjMxMzc1LC0zLjIxMjM4IC0yLjc1LC00LjI4MTI1IC0xLjQ1NSwtMS4wNjgzNyAtNS4yMzI1LC0xLjYyNSAtNy4zNDM3NSwtMS42MjUgeiBtIC01OC42NTYyNSwwLjIxODc1IC0xMS41NjI1LDIuNjU2MjUgMCwyLjA2MjUgNCwtMC41IGMgMS45Mzc1LDAgMy4wNzc1LDAuODc3MzggMy40Mzc1LDIuNjI1IDAuMTIxMjUsMC41ODQ4OCAwLjE5NzUsMS40MDYyNSAwLjIxODc1LDIuNDM3NSBsIC0wLjEyNSwxOC45MDYyNCBjIC0wLjAzMjUsMi42MTYyNSAtMC4zMjI1LDQuMTM3MTIgLTAuOTA2MjUsNC41OTM3NSAtMC41ODg3NSwwLjQ1NzUgLTIuMTQxMjUsMC42ODc1IC00LjY1NjI1LDAuNjg3NSBsIC0wLjA2MjUsMS43ODEyNSAxOC4zNDM3NSwwIC0wLjAzMTIsLTEuNzgxMjUgYyAtMi41NDg3NSwwIC00LjIwMTI1LC0wLjIwMTEyIC00LjkzNzUsLTAuNTkzNzUgLTAuNzIzNzUsLTAuMzkwMTIgLTEuMjIyNSwtMS4xMDAxMiAtMS40Mzc1LC0yLjE4NzUgLTAuMTY2MjUsLTAuNzgzNjMgLTAuMjM4NzUsLTIuMTMzODcgLTAuMjUsLTQgbCAwLjA2MjUsLTI2LjY4NzQ5IC0yLjA5Mzc1LDAgeiBtIDU1LjcxODc1LDMuNSBjIDEuMTE2MjUsMCAyLjE5NSwwLjQzMTEyIDMuMjgxMjUsMS4yODEyNSAxLjA3MTI1LDAuODQ3MTMgMS43MjM3NSwxLjc4OTEyIDEuOTM3NSwyLjgxMjUgMS4wNDYyNSw1LjAyNjM4IC0zLjQxLDguNTAxMzYgLTEzLjQzNzUsMTAuNDM3NDkgLTAuMjg2MjUsLTMuNjY1MTIgMC4zNDg3NSwtNi45OTIyNCAxLjk2ODc1LC05Ljk5OTk5IDEuNjA3NSwtMy4wMDQ4OCAzLjcwMTI1LC00LjUzMTI1IDYuMjUsLTQuNTMxMjUgeiIvPjxwYXRoIHN0eWxlPSJmaWxsOiMwZjgwY2M7ZmlsbC1vcGFjaXR5OjE7ZmlsbC1ydWxlOm5vbnplcm87c3Ryb2tlOm5vbmUiIGlkPSJzb2xpZC1iYWNrZ3JvdW5kIiBkPSJtIDEyMS42MzE1LDE3LjAzNjIzIC05OS41MDYsMCBDIDE1LjQ1NjUsMTcuMDM2MjMgMTAsMjIuNDkzNzMgMTAsMjkuMTYyNDggbCAwLDEwOS43MzY1IGMgMCw2LjY2ODM3IDUuNDU2NSwxMi4xMjUgMTIuMTI1NSwxMi4xMjUgbCA2NS41MzcyNSwwIEMgODYuOTE4ODg0LDExOC40MTQ3NyA5OC4wNTQ0OTksNTUuMTMwNDAyIDEyMS42MzE1LDE3LjAzNjIzIHoiLz48cGF0aCBzdHlsZT0iZmlsbDp1cmwoI2xpbmVhckdyYWRpZW50Mjk5NSk7ZmlsbC1vcGFjaXR5OjE7ZmlsbC1ydWxlOm5vbnplcm87c3Ryb2tlOm5vbmUiIGlkPSJncmFkaWVudC1iYWNrZ3JvdW5kIiBkPSJtIDExOC4wMTY1LDIwLjU3MzczIC05NS44OTEsMCBjIC00LjczNTM3NSwwIC04LjU4ODg3NSwzLjg1MjUgLTguNTg4ODc1LDguNTg4NzUgbCAwLDEwMS43MzAxMyBjIDIxLjcxNzI1LC04LjMzNSA1NC4zMTIyMSwtMTUuNTI2OSA3Ni44NDk1ODUsLTE1LjIwMDI3IDQuNTI4OTMsLTIzLjY4MDkwMSAxNy44Mzk0MSwtNzAuMDkwNDI0IDI3LjYzMDI5LC05NS4xMTg2MSB6Ii8+PHBhdGggc3R5bGU9ImZpbGw6IzAwM2I1NztmaWxsLW9wYWNpdHk6MTtmaWxsLXJ1bGU6bm9uemVybztzdHJva2U6bm9uZSIgaWQ9ImZlYXRoZXIiIGQ9Im0gMTQ0Ljg0MTUsMTMuNDQ0OTggYyAtNi44MTUsLTYuMDc3NSAtMTUuMDY2MjUsLTMuNjM2MjUgLTIzLjIxLDMuNTkxMjUgLTEuMjA4NzUsMS4wNzM3NSAtMi40MTUsMi4yNjUgLTMuNjE1LDMuNTM3NSAtMTMuOTMxMjUsMTQuNzc4NzUgLTI2Ljg2MjUsNDIuMTUzNzUgLTMwLjg4LDYzLjA2IDEuNTY1LDMuMTczNzUgMi43ODc1LDcuMjIzNzUgMy41OTI1LDEwLjMxNzUgMC4yMDYyNSwwLjc5Mzc1IDAuMzkyNSwxLjUzODc1IDAuNTQxMjUsMi4xNzI1IDAuMzUzNzUsMS40OTk4NzUgMC41NDM3NSwyLjQ3MjUgMC41NDM3NSwyLjQ3MjUgMCwwIC0wLjEyNSwtMC40NzI2MjUgLTAuNjM3NSwtMS45NTg3NSAtMC4wOTc1LC0wLjI4NSAtMC4yMDYyNSwtMC41OTYyNSAtMC4zMzUsLTAuOTYyNSAtMC4wNTUsLTAuMTUxMjUgLTAuMTMxMjUsLTAuMzM1IC0wLjIxNSwtMC41MzEyNSAtMC45MDg3NSwtMi4xMTI1IC0zLjQyMjUsLTYuNTcxMjUgLTQuNTI4NzUsLTguNTEyNSAtMC45NDYyNSwyLjc5MTI1IC0xLjc4MjUsNS40MDI1IC0yLjQ4MjUsNy43NjUgMy4xOTM3NSw1Ljg0MzUgNS4xNCwxNS44NTc3NSA1LjE0LDE1Ljg1Nzc1IDAsMCAtMC4xNjg3NSwtMC42NDkgLTAuOTcxMjUsLTIuOTE0MTIgLTAuNzEyNSwtMi4wMDMzOCAtNC4yNjEyNSwtOC4yMjExMyAtNS4xMDE4NzUsLTkuNjc0NzU1IC0xLjQzOCw1LjMwODUwNSAtMi4wMDkzNzUsOC44OTI1MDUgLTEuNDk0MTI1LDkuNzY1MTI1IDEuMDAwMzc1LDEuNjkwODggMS45NTMxMjUsNC42MDgzOCAyLjc4OTc1LDcuODM0ODggMS44OSw3LjI2ODYyIDMuMjAzNzUsMTYuMTE3MjUgMy4yMDM3NSwxNi4xMTcyNSAwLDAgMC4wNDI1LDAuNTg2MzcgMC4xMTM3NSwxLjQ4ODc1IC0wLjI2MjUsNi4xMDQgLTAuMTA1LDEyLjQzMjYyIDAuMzY3NSwxOC4xNTI4NyAwLjYyNjI1LDcuNTcyMjUgMS44MDUsMTQuMDc3MTMgMy4zMDc1LDE3LjU1ODUgbCAxLjAyLC0wLjU1NjEyIGMgLTIuMjA2MjUsLTYuODU4ODggLTMuMTAyNSwtMTUuODQ3NjMgLTIuNzEsLTI2LjIxMzg4IDAuNTkzNzUsLTE1Ljg0NTEyIDQuMjQsLTM0Ljk1MzYyIDEwLjk3NzUsLTU0Ljg3IDExLjM4MjUsLTMwLjA2NSAyNy4xNzUsLTU0LjE4NzUgNDEuNjI4NzUsLTY1LjcwNzUgLTEzLjE3Mzc1LDExLjg5NzUgLTMxLjAwMzc1LDUwLjQwODc1IC0zNi4zNDEyNSw2NC42NyAtNS45NzYyNSwxNS45NyAtMTAuMjExMjUsMzAuOTU2MzggLTEyLjc2Mzc1LDQ1LjMxNDc1IDQuNDAzNzUsLTEzLjQ2MDg3IDE4LjY0MjUsLTE5LjI0NyAxOC42NDI1LC0xOS4yNDcgMCwwIDYuOTgzNzUsLTguNjEyODcgMTUuMTQ1LC0yMC45MTc3NSAtNC44ODg3NSwxLjExNSAtMTIuOTE2MjUsMy4wMjM3NSAtMTUuNjA1LDQuMTUzNzUgLTMuOTY2MjUsMS42NjM3NSAtNS4wMzUsMi4yMzEyNSAtNS4wMzUsMi4yMzEyNSAwLDAgMTIuODQ3NSwtNy44MjM3NSAyMy44NywtMTEuMzY2MjUgMTUuMTU4NzUsLTIzLjg3NSAzMS42NzM3NSwtNTcuNzkyNSAxNS4wNDI1LC03Mi42Mjg3NSIvPjwvc3ZnPg==;" parent="1" vertex="1">
          <mxGeometry x="771" y="277.35" width="83.95" height="39.77" as="geometry" />
        </mxCell>
        <mxCell id="dma2-FAJg4TJJQWOGDUs-32" value="&lt;b style=&quot;font-size: 9px;&quot;&gt;&lt;font style=&quot;font-size: 9px;&quot; data-font-src=&quot;https://fonts.googleapis.com/css?family=Outfit&quot; face=&quot;Outfit&quot;&gt;Save And Load&lt;br style=&quot;font-size: 9px;&quot;&gt;Settings Value&lt;/font&gt;&lt;/b&gt;" style="text;html=1;align=center;verticalAlign=middle;resizable=0;points=[];autosize=1;strokeColor=none;fillColor=none;fontSize=10;" parent="1" vertex="1">
          <mxGeometry x="651.09" y="292.34000000000003" width="90" height="40" as="geometry" />
        </mxCell>
        <mxCell id="dma2-FAJg4TJJQWOGDUs-34" style="edgeStyle=orthogonalEdgeStyle;rounded=0;orthogonalLoop=1;jettySize=auto;html=1;entryX=0;entryY=0.5;entryDx=0;entryDy=0;strokeWidth=2;" parent="1" source="dma2-FAJg4TJJQWOGDUs-28" target="dma2-FAJg4TJJQWOGDUs-24" edge="1">
          <mxGeometry relative="1" as="geometry" />
        </mxCell>
        <mxCell id="Xg-3cdBNH_Eo5FTvBpCZ-11" style="edgeStyle=orthogonalEdgeStyle;rounded=0;orthogonalLoop=1;jettySize=auto;html=1;strokeWidth=2;" parent="1" source="dma2-FAJg4TJJQWOGDUs-28" edge="1">
          <mxGeometry relative="1" as="geometry">
            <mxPoint x="723.0900000000003" y="612.77" as="targetPoint" />
          </mxGeometry>
        </mxCell>
        <mxCell id="dma2-FAJg4TJJQWOGDUs-28" value="&lt;font size=&quot;1&quot; data-font-src=&quot;https://fonts.googleapis.com/css?family=Outfit&quot; face=&quot;Outfit&quot;&gt;&lt;b style=&quot;font-size: 22px;&quot;&gt;Arduino&lt;/b&gt;&lt;/font&gt;" style="dashed=0;outlineConnect=0;html=1;align=center;labelPosition=center;verticalLabelPosition=bottom;verticalAlign=top;shape=mxgraph.weblogos.arduino;fillColor=#36868D;strokeColor=none" parent="1" vertex="1">
          <mxGeometry x="781.09" y="596.77" width="67.4" height="32" as="geometry" />
        </mxCell>
        <mxCell id="dma2-FAJg4TJJQWOGDUs-35" value="&lt;font style=&quot;&quot;&gt;&lt;i style=&quot;&quot;&gt;&lt;font style=&quot;font-size: 18px;&quot;&gt;Wi-Fi&lt;/font&gt;&lt;/i&gt;&lt;br style=&quot;font-size: 9px;&quot;&gt;&lt;font size=&quot;1&quot;&gt;Send Color Data&lt;/font&gt;&lt;br&gt;&lt;/font&gt;" style="text;html=1;align=center;verticalAlign=middle;resizable=0;points=[];autosize=1;strokeColor=none;fillColor=none;fontFamily=Outfit;fontSource=https%3A%2F%2Ffonts.googleapis.com%2Fcss%3Ffamily%3DOutfit;fontStyle=1" parent="1" vertex="1">
          <mxGeometry x="878.09" y="470" width="100" height="50" as="geometry" />
        </mxCell>
        <mxCell id="dma2-FAJg4TJJQWOGDUs-36" value="&lt;font size=&quot;1&quot; data-font-src=&quot;https://fonts.googleapis.com/css?family=Outfit&quot; face=&quot;Outfit&quot;&gt;&lt;b&gt;&lt;i style=&quot;font-size: 18px;&quot;&gt;Wi-FI or Ethernet&lt;/i&gt;&lt;/b&gt;&lt;/font&gt;" style="text;html=1;align=center;verticalAlign=middle;resizable=0;points=[];autosize=1;strokeColor=none;fillColor=none;" parent="1" vertex="1">
          <mxGeometry x="374.09" y="175" width="160" height="40" as="geometry" />
        </mxCell>
        <mxCell id="dma2-FAJg4TJJQWOGDUs-39" value="&lt;font style=&quot;font-size: 9px;&quot;&gt;Send&lt;br&gt;Color Data&lt;br&gt;&lt;/font&gt;" style="text;html=1;align=center;verticalAlign=middle;resizable=0;points=[];autosize=1;strokeColor=none;fillColor=none;fontFamily=Outfit;fontSource=https%3A%2F%2Ffonts.googleapis.com%2Fcss%3Ffamily%3DOutfit;fontStyle=1" parent="1" vertex="1">
          <mxGeometry x="843" y="570" width="70" height="40" as="geometry" />
        </mxCell>
        <mxCell id="dma2-FAJg4TJJQWOGDUs-41" value="Tauri" style="shape=image;verticalLabelPosition=bottom;labelBackgroundColor=none;verticalAlign=top;aspect=fixed;imageAspect=0;image=data:image/svg+xml,PHN2ZyB4bWxucz0iaHR0cDovL3d3dy53My5vcmcvMjAwMC9zdmciIHdpZHRoPSIyNDM0IiB2aWV3Qm94PSItNy4wMTExNDIyMyAtLjQ4OTA0ODI0IDIxOS4yNDQ5MDc2NSAyMzEuOTAwMDY0OSIgaGVpZ2h0PSIyNTAwIiBmaWxsPSJub25lIj48cGF0aCBmaWxsPSIjZmZjMTMxIiBkPSJtMTQzLjEgODRhMjIgMjIgMCAxIDEgLTQ0IDAgMjIgMjIgMCAwIDEgNDQgMHoiLz48Y2lyY2xlIHRyYW5zZm9ybT0ibWF0cml4KC0xIDAgMCAtMSAxNjguMiAyOTQpIiByPSIyMiIgZmlsbD0iIzI0YzhkYiIgY3k9IjE0NyIgY3g9Ijg0LjEiLz48ZyBmaWxsLXJ1bGU9ImV2ZW5vZGQiIGNsaXAtcnVsZT0iZXZlbm9kZCI+PHBhdGggZmlsbD0iI2ZmYzEzMSIgZD0ibTE2Ni43IDE1NC41YTg0IDg0IDAgMCAxIC0yOSAxMS44IDU5IDU5IDAgMCAwIDIuOS0yNi42IDU5IDU5IDAgMSAwIC02Ny40LTkwLjEgOTggOTggMCAwIDAgLTMyLjIgOS40IDg0IDg0IDAgMSAxIDEyNS43IDk1LjV6bS0xMjQuNy04MC4yIDIwLjYgMi41YTU5IDU5IDAgMCAxIDIuNi0xMS43IDg0IDg0IDAgMCAwIC0yMy4yIDkuMnoiLz48cGF0aCBmaWxsPSIjMjRjOGRiIiBkPSJtMzguNCA3Ni41YTg0IDg0IDAgMCAxIDI5LjItMTEuOSA1OC45IDU4LjkgMCAwIDAgLTMuMyAyNi43IDU5IDU5IDAgMSAwIDY3LjcgOTAgOTggOTggMCAwIDAgMzIuMi05LjMgODQgODQgMCAxIDEgLTEyNS44LTk1LjV6bTEyNC43IDgwLjItLjQuMnoiLz48L2c+PC9zdmc+;fontFamily=Outfit;fontSource=https%3A%2F%2Ffonts.googleapis.com%2Fcss%3Ffamily%3DOutfit;fontStyle=1;fontSize=15;" parent="1" vertex="1">
          <mxGeometry x="190" y="172.42" width="61.55" height="63.23" as="geometry" />
        </mxCell>
        <mxCell id="dma2-FAJg4TJJQWOGDUs-42" value="&lt;div style=&quot;text-align: left; font-size: 10px;&quot;&gt;&lt;b style=&quot;font-family: Outfit; background-color: initial;&quot;&gt;&lt;font style=&quot;font-size: 10px;&quot;&gt;- Running on Background and Forground&lt;/font&gt;&lt;/b&gt;&lt;/div&gt;&lt;font data-font-src=&quot;https://fonts.googleapis.com/css?family=Outfit&quot; face=&quot;Outfit&quot; style=&quot;font-size: 10px;&quot;&gt;&lt;b style=&quot;&quot;&gt;&lt;div style=&quot;text-align: left;&quot;&gt;&lt;b style=&quot;background-color: initial;&quot;&gt;- Capture Screen and&lt;/b&gt;&lt;/div&gt;&lt;div style=&quot;text-align: left;&quot;&gt;&amp;nbsp; &amp;nbsp; Convert to Refined Color Data&lt;/div&gt;&lt;div style=&quot;text-align: left;&quot;&gt;- Provide UI&lt;/div&gt;&lt;/b&gt;&lt;/font&gt;" style="text;html=1;align=center;verticalAlign=middle;resizable=0;points=[];autosize=1;strokeColor=none;fillColor=none;" parent="1" vertex="1">
          <mxGeometry x="155" y="257.12" width="200" height="60" as="geometry" />
        </mxCell>
        <mxCell id="dma2-FAJg4TJJQWOGDUs-45" value="&lt;font style=&quot;font-size: 10px;&quot; data-font-src=&quot;https://fonts.googleapis.com/css?family=Outfit&quot; face=&quot;Outfit&quot;&gt;&lt;b&gt;Desktop Duplication API&lt;br&gt;binded to Rust&lt;br&gt;&lt;/b&gt;&lt;/font&gt;" style="text;html=1;align=center;verticalAlign=middle;resizable=0;points=[];autosize=1;strokeColor=none;fillColor=none;" parent="1" vertex="1">
          <mxGeometry x="203.64" y="343.12" width="130" height="40" as="geometry" />
        </mxCell>
        <mxCell id="dma2-FAJg4TJJQWOGDUs-55" value="&lt;font data-font-src=&quot;https://fonts.googleapis.com/css?family=Outfit&quot; face=&quot;Outfit&quot; style=&quot;font-size: 12px;&quot;&gt;&lt;b style=&quot;font-size: 12px;&quot;&gt;SQLite DB&lt;/b&gt;&lt;/font&gt;" style="text;html=1;align=center;verticalAlign=middle;resizable=0;points=[];autosize=1;strokeColor=none;fillColor=none;fontSize=12;" parent="1" vertex="1">
          <mxGeometry x="775.98" y="317.12" width="80" height="30" as="geometry" />
        </mxCell>
        <mxCell id="dma2-FAJg4TJJQWOGDUs-56" value="&lt;font size=&quot;1&quot; data-font-src=&quot;https://fonts.googleapis.com/css?family=Outfit&quot; face=&quot;Outfit&quot; style=&quot;&quot;&gt;&lt;b style=&quot;font-size: 24px;&quot;&gt;PC&lt;/b&gt;&lt;/font&gt;" style="text;html=1;align=center;verticalAlign=middle;resizable=0;points=[];autosize=1;strokeColor=none;fillColor=none;" parent="1" vertex="1">
          <mxGeometry x="235.00000000000003" y="403.12" width="50" height="40" as="geometry" />
        </mxCell>
        <mxCell id="dma2-FAJg4TJJQWOGDUs-57" value="&lt;font style=&quot;font-size: 18px;&quot;&gt;&lt;b&gt;Other W2812&lt;br&gt;LED Devices&lt;br&gt;&lt;/b&gt;&lt;/font&gt;" style="shape=image;html=1;verticalAlign=top;verticalLabelPosition=bottom;labelBackgroundColor=#ffffff;imageAspect=0;aspect=fixed;image=https://cdn3.iconfinder.com/data/icons/energy-and-power-glyph-24-px/24/Lamp_electric_light_led_bulb_light_bulb_luminaire-128.png;fontFamily=Outfit;fontSource=https%3A%2F%2Ffonts.googleapis.com%2Fcss%3Ffamily%3DOutfit;" parent="1" vertex="1">
          <mxGeometry x="659.09" y="580" width="54" height="54" as="geometry" />
        </mxCell>
        <mxCell id="Xg-3cdBNH_Eo5FTvBpCZ-5" value="" style="group" parent="1" vertex="1" connectable="0">
          <mxGeometry x="590.09" y="210" width="321.5" height="70" as="geometry" />
        </mxCell>
        <mxCell id="dma2-FAJg4TJJQWOGDUs-14" value="&lt;p style=&quot;font-size: 18px;&quot;&gt;Daemon&lt;/p&gt;" style="text;html=1;align=center;verticalAlign=middle;resizable=0;points=[];autosize=1;strokeColor=none;fillColor=none;fontFamily=Outfit;fontSource=https%3A%2F%2Ffonts.googleapis.com%2Fcss%3Ffamily%3DOutfit;fontStyle=1;fontSize=18;" parent="Xg-3cdBNH_Eo5FTvBpCZ-5" vertex="1">
          <mxGeometry x="21.5" width="90" height="70" as="geometry" />
        </mxCell>
        <mxCell id="dma2-FAJg4TJJQWOGDUs-52" value="" style="shape=image;verticalLabelPosition=bottom;labelBackgroundColor=default;verticalAlign=top;aspect=fixed;imageAspect=0;image=data:image/svg+xml,PHN2ZyB4bWxucz0iaHR0cDovL3d3dy53My5vcmcvMjAwMC9zdmciIGlkPSJzdmcyIiBzdHlsZT0iZmlsbDojZDEwMDAwO3N0cm9rZTojMDAwMDAwO3N0cm9rZS1saW5lY2FwOnJvdW5kO3N0cm9rZS1saW5lam9pbjpyb3VuZCIgdmlld0JveD0iMCAwIDE5MSAyMDgiIHZlcnNpb249IjEuMSI+JiN4YTsgIDxwYXRoIGlkPSJwYXRoNCIgZD0ibSAxMTIsMTM1IGMgNCwzNyAzOCwzOCA1Myw0MiA0NCw5IDIyLDI2IDQsMjYgbCAxLDMgLTM4LDEgMzEsLTE4IDMsOCBjIDUsMiAzOCwtMTAgLTE1LC0xNSAtMjIsLTQgLTM2LC05IC00NCwtMTkgTCA4MCwxNzkgQyA3MywxNjMgNTIsMTU3IDYxLDEzNiIvPiYjeGE7ICA8cGF0aCBpZD0icGF0aDYiIHN0eWxlPSJmaWxsOiNmZmQ3MDAiIGQ9Im0gMTA2LDE1NyBjIDIsMSA1LC0zIDQsLTUgTCAzNyw5OCBjIDAsLTMgNywtOSAtMywtMTcgbCAxLC0yIC0xMywtNiBjIDIsNCA0LDUgNiwxMiBsIDQsLTIgYyA0LDUgNCw5IDAsMTEgbCAtNywtNSBjIDAsLTEgMSwtMiAxLC0zIDAsMCAtMSwtMSAtNCwtMSAtMiwwIC02LC00IC05LC00IDAsMyA1LDggNSwxMyBsIDMsLTIgYyAzLDEgNSwzIDcsNiAtMyw0IC03LDYgLTE1LDIgMCwtMiAyLC0zIDIsLTUgLTQsMCAtOSwtMyAtMTQsLTYgMiw3IDgsMTUgMTQsMTcgMTAsNCAxNCwtMyAxOSwtMyB6Ii8+JiN4YTsgIDxwYXRoIGlkPSJwYXRoOCIgZD0iTSA3OCw5MiA0OCw1NSBDIDUwLDUwIDQ5LDQzIDQ4LDQwIDQzLDIzLjUgNTQsMTYgNjQsOCA3MiwyIDc2LDEgNzgsMiBjIDIsMiAtOCw4IC0xMCwxNSAwLDAgLTIsMTEgNSw2IDYsLTMgMTQsLTUgMjMsLTMgNywxIDE4LDUgMjUsMTMgMjEsLTQgOSwtMTcgNywtMjUgNywtNiA0My41LDMxIC0xLDU1IDAsMTQgLTMsMjMgLTEyLDMxIC0xMSw5IC00LDEzIC0yLDE5IDUsMTcgMywyOCAtMTcsMzEgLTE0LDIgLTE2LDggLTI3LDAiLz4mI3hhOyAgPHBhdGggaWQ9InBhdGgxMCIgZD0ibSA3MywzMiBjIDEsLTQgLTksLTExIC0yMCwxMCAtMSwzIC01LDExIC01LDExIC0xLDQgLTIsOSAtNCwxMSAtMTAsMTAgLTUsMjMgOCwyOCAzLDEgMTIsOCAxOCwxMSAzLDIgMCw5IC01LDggLTI3LC02IC0yOCwxMyAtMTcsMTYgbCAzOSwtMiIvPiYjeGE7ICA8cGF0aCBpZD0icGF0aDEyIiBzdHlsZT0iZmlsbDpub25lIiBkPSJtIDc5LDMxIGMgNCwtNCAxMSwtNCAxNCwyIDEsMiAxLDQgMiw1Ii8+JiN4YTsgIDxwYXRoIGlkPSJwYXRoMTQiIHN0eWxlPSJzdHJva2Utd2lkdGg6MS41IiBkPSJtIDUwLDg1IGMgNSwxIDUsNCAxMSw5IDEwLDggMjIsMSAyNSwtMSA0LC0yIDQsLTUgOCwtMyIvPiYjeGE7ICA8cGF0aCBpZD0icGF0aDE2IiBkPSJtIDYzLDcxIGMgLTEyLC03IC0xNSw0IC0xMCw5IDEsMSA0LDEgNiwyIDIsMSAzLC0zIDgsLTAuNSA0LDIuNSA2LC0yLjUgMiwtNC41Ii8+JiN4YTsgIDxwYXRoIGlkPSJwYXRoMTgiIHN0eWxlPSJmaWxsOiNmZmZmZmYiIGQ9Im0gNzAsMzcgYyAwLC0zIC02LC01IC0xMyw2IC04LDEzIC03LDIwIC0zLDIzIDMsMiA2LDEgOSwtOCAyLC01IDcsLTE4IDcsLTIxIHoiLz4mI3hhOyAgPHBhdGggaWQ9InBhdGgyMCIgc3R5bGU9ImZpbGw6I2ZmZmZmZiIgZD0iTSA4MiwzNiBDIDkyLDM0IDkxLDcxIDc1LDcyIDU3LDczIDY5LDM5IDgyLDM2IFoiLz4mI3hhOyAgPGcgaWQ9ImczMCIgc3R5bGU9InN0cm9rZTpub25lO2ZpbGw6IzAwMDAwMCI+JiN4YTsgICAgPHBhdGggaWQ9InBhdGgyMiIgZD0ibSA3Nyw1NCBjIDUsNCAtMSwyMCAtOCwxNCAtNSwtNSAyLC0xOSA4LC0xNCB6Ii8+JiN4YTsgICAgPHBhdGggaWQ9InBhdGgyNCIgZD0ibSA2MCw1MiBjIDUsNCAtMywxNyAtNiwxMSAtMywtNCAwLC0xNSA2LC0xMSB6Ii8+JiN4YTsgICAgPHBhdGggaWQ9InBhdGgyNiIgc3R5bGU9ImZpbGw6I2ZmZmZmZiIgZD0ibSA1Nyw1MyBjIDEsMCAxLDYgMCw2IC0zLDAgLTIsLTYgMCwtNiB6Ii8+JiN4YTsgICAgPHBhdGggaWQ9InBhdGgyOCIgc3R5bGU9ImZpbGw6I2ZmZmZmZiIgZD0ibSA3Myw1NyBjIDEsMCAxLDQgLTEsNCAtMSwwIC0yLC00IDEsLTQgeiIvPiYjeGE7ICA8L2c+JiN4YTsgIDxwYXRoIGlkPSJwYXRoMzIiIGQ9Im0gNzUsMTQ0IGMgLTUsMCAtOCwxIC0xNCwtNiIvPiYjeGE7ICA8cGF0aCBpZD0icGF0aDM0IiBkPSJtIDcwLDEzOCBjIC0yNiwyIC02LC0zNSAxNCwtMTkgNCwzIDgsNCAxNCwyIi8+JiN4YTsgIDxwYXRoIGlkPSJwYXRoMzYiIGQ9Im0gNjYsMTIwIGMgMyw1IC03LDEzIC0xMyw4IC02LC01IDEwLC0xMiAxMywtOCB6Ii8+JiN4YTsgIDxwYXRoIGlkPSJwYXRoMzgiIGQ9Im0gNjAsMTEwIGMgLTIzLC0zIC0yMiwxNCAtMTIsMTcgMTEsMyAyMywtMTMgMTIsLTE3IHoiLz4mI3hhOyAgPHBhdGggaWQ9InBhdGg0MCIgZD0ibSA1NCwxMTUgYyAxLDcgLTE0LDExIC0xNywxIC0yLC03IDE1LC0xNyAxNywtMSB6Ii8+JiN4YTsgIDxwYXRoIGlkPSJwYXRoNDIiIGQ9Im0gNTcsMTAxIGMgNiw4IC05LDEyIC0xMyw3IC04LC05IDgsLTEzIDEzLC03IHoiLz4mI3hhOyAgPHBhdGggaWQ9InBhdGg0NCIgc3R5bGU9ImZpbGw6IzAwYjAwMCIgZD0ibSAzNiwxNzYgYyAxMywtMSAzNSwtMSAyOSwtMTEgLTIsLTMgLTEsLTUgLTEsLTcgMiw4IDE4LDMgMTcsMTMgbCAtMTksMjYgeiIvPiYjeGE7ICA8cGF0aCBpZD0icGF0aDQ2IiBzdHlsZT0iZmlsbDojMDBiMDAwIiBkPSJtIDk0LDE2NiBjIDQsLTIgOCwwIDEyLC0zIDcsNyA3LDE3IDksMTkgTCA4MSwxOTYgNTksMTg1IGMgMTAsLTEyIDIxLC03IDIyLC0xNCAyLC0xMiA4LC05IDEzLC00IDAsMCAxLDEwIC0yLDEwIC03LDEgLTIyLDcgLTIyLDciLz4mI3hhOyAgPHBhdGggaWQ9InBhdGg0OCIgc3R5bGU9ImZpbGw6I2ZmZmZmZiIgZD0ibSAxOSwxODEgYyAyLC0zIDMwLC0xMSAzMCwxIGwgLTE3LDkgeiIvPiYjeGE7ICA8cGF0aCBpZD0icGF0aDUwIiBzdHlsZT0iZmlsbDojZjRmZmY0IiBkPSJtIDEwOCwxNzMgYyAwLDcgLTYsNiAtNywzIC0yLC03IDcsLTggNywtMyB6Ii8+JiN4YTsgIDxwYXRoIGlkPSJwYXRoNTIiIHN0eWxlPSJmaWxsOiNmZmZmZmYiIGQ9Im0gNDIsMTkxIGMgLTI1LDMgLTI1LC00IC0yNSwtNCAwLC01IDAsLTUgMiwtNiAzLDQgMjAsNiAyOCwyIi8+JiN4YTsgIDxwYXRoIGlkPSJwYXRoNTQiIHN0eWxlPSJmaWxsOiNmZmZmZmYiIGQ9Im0gNzgsMTkyIGMgMCwtMTggLTI5LC0xNiAtMzUsLTUgbCAxMywxMCB6Ii8+JiN4YTsgIDxwYXRoIGlkPSJwYXRoNTYiIHN0eWxlPSJmaWxsOiNmZmZmZmYiIGQ9Im0gMTE0LDE4MSBjIDIsLTEgMSwzIDEsNyAtMjAsMTMgLTYyLDE0IC03Myw1IDAsLTQgMCwtNSAxLC03IDYsMTAgNjMsNiA3MSwtNSB6Ii8+JiN4YTsgIDxwYXRoIGlkPSJwYXRoNTgiIHN0eWxlPSJzdHJva2U6IzAwZmZmZiIgZD0ibSA2NywxNjkgMTAsMSBtIC0xMiwyIDEwLDIgbSAtMTUsMCA4LDIgbSAtMTYsMCAxMiwyIG0gMTgsLTggMTIsMSBtIC0xMywyIDEyLDIgbSAtMTYsMSA3LDEgbSAtMTMsMSA4LDEiLz4mI3hhOzwvc3ZnPg==;" parent="Xg-3cdBNH_Eo5FTvBpCZ-5" vertex="1">
          <mxGeometry y="19.560000000000002" width="30.19" height="32.88" as="geometry" />
        </mxCell>
        <mxCell id="dma2-FAJg4TJJQWOGDUs-54" value="&lt;font style=&quot;font-size: 10px;&quot; face=&quot;Outfit&quot;&gt;&lt;b&gt;&amp;nbsp;- Running on Background as Daemon&lt;br&gt;- Written by Rust&lt;br&gt;- Send Color Data to Arduino immediately&lt;/b&gt;&lt;/font&gt;" style="text;html=1;align=left;verticalAlign=middle;resizable=0;points=[];autosize=1;strokeColor=none;fillColor=none;" parent="Xg-3cdBNH_Eo5FTvBpCZ-5" vertex="1">
          <mxGeometry x="106" y="5" width="210" height="60" as="geometry" />
        </mxCell>
        <mxCell id="Xg-3cdBNH_Eo5FTvBpCZ-12" value="&lt;font style=&quot;font-size: 9px;&quot;&gt;Send&lt;br&gt;Color Data&lt;br&gt;&lt;/font&gt;" style="text;html=1;align=center;verticalAlign=middle;resizable=0;points=[];autosize=1;strokeColor=none;fillColor=none;fontFamily=Outfit;fontSource=https%3A%2F%2Ffonts.googleapis.com%2Fcss%3Ffamily%3DOutfit;fontStyle=1" parent="1" vertex="1">
          <mxGeometry x="711.09" y="570" width="70" height="40" as="geometry" />
        </mxCell>
        <mxCell id="Xg-3cdBNH_Eo5FTvBpCZ-13" style="edgeStyle=orthogonalEdgeStyle;rounded=0;orthogonalLoop=1;jettySize=auto;html=1;strokeWidth=3;" parent="1" source="dma2-FAJg4TJJQWOGDUs-54" target="dma2-FAJg4TJJQWOGDUs-28" edge="1">
          <mxGeometry relative="1" as="geometry">
            <Array as="points">
              <mxPoint x="981.09" y="275" />
              <mxPoint x="981.09" y="520" />
              <mxPoint x="815.09" y="520" />
            </Array>
          </mxGeometry>
        </mxCell>
        <mxCell id="r8SihW0kNrqciPuJfln7-1" value="React" style="shape=image;verticalLabelPosition=bottom;labelBackgroundColor=none;verticalAlign=top;aspect=fixed;imageAspect=0;image=data:image/svg+xml,PHN2ZyB4bWxucz0iaHR0cDovL3d3dy53My5vcmcvMjAwMC9zdmciIHZpZXdCb3g9Ii0xMS41IC0xMC4yMzE3NCAyMyAyMC40NjM0OCI+JiN4YTsgIDx0aXRsZT5SZWFjdCBMb2dvPC90aXRsZT4mI3hhOyAgPGNpcmNsZSBmaWxsPSIjNjFkYWZiIiByPSIyLjA1IiBjeT0iMCIgY3g9IjAiLz4mI3hhOyAgPGcgZmlsbD0ibm9uZSIgc3Ryb2tlLXdpZHRoPSIxIiBzdHJva2U9IiM2MWRhZmIiPiYjeGE7ICAgIDxlbGxpcHNlIHJ5PSI0LjIiIHJ4PSIxMSIvPiYjeGE7ICAgIDxlbGxpcHNlIHRyYW5zZm9ybT0icm90YXRlKDYwKSIgcnk9IjQuMiIgcng9IjExIi8+JiN4YTsgICAgPGVsbGlwc2UgdHJhbnNmb3JtPSJyb3RhdGUoMTIwKSIgcnk9IjQuMiIgcng9IjExIi8+JiN4YTsgIDwvZz4mI3hhOzwvc3ZnPg==;fontFamily=Outfit;fontStyle=1;fontSource=https%3A%2F%2Ffonts.googleapis.com%2Fcss%3Ffamily%3DOutfit;" vertex="1" parent="1">
          <mxGeometry x="285" y="198.39999999999998" width="39.66" height="34.49" as="geometry" />
        </mxCell>
        <mxCell id="r8SihW0kNrqciPuJfln7-2" value="&lt;font size=&quot;1&quot; data-font-src=&quot;https://fonts.googleapis.com/css?family=Outfit&quot; face=&quot;Outfit&quot; style=&quot;&quot;&gt;&lt;b style=&quot;font-size: 30px;&quot;&gt;+&lt;/b&gt;&lt;/font&gt;" style="text;html=1;align=center;verticalAlign=middle;resizable=0;points=[];autosize=1;strokeColor=none;fillColor=none;" vertex="1" parent="1">
          <mxGeometry x="245" y="190.65" width="40" height="50" as="geometry" />
        </mxCell>
        <mxCell id="r8SihW0kNrqciPuJfln7-3" value="" style="shape=image;html=1;verticalAlign=top;verticalLabelPosition=bottom;labelBackgroundColor=#ffffff;imageAspect=0;aspect=fixed;image=https://cdn3.iconfinder.com/data/icons/energy-and-power-glyph-24-px/24/Lamp_electric_light_led_bulb_light_bulb_luminaire-128.png" vertex="1" parent="1">
          <mxGeometry x="634" y="590.77" width="42" height="42" as="geometry" />
        </mxCell>
      </root>
    </mxGraphModel>
  </diagram>
</mxfile>
